
<svg width="100" height="100" viewBox="0 0 100 100" fill="none" xmlns="http://www.w3.org/2000/svg">
  <rect width="100" height="100" rx="15" fill="#1b401e" />
  <path d="M75 38.5C75 48.7173 67.7433 57 58.75 57C49.7567 57 42.5 48.7173 42.5 38.5C42.5 28.2827 49.7567 20 58.75 20C67.7433 20 75 28.2827 75 38.5Z" stroke="#9eca50" stroke-width="6"/>
  <path d="M69.375 38.0769C69.375 44.2269 64.4605 49.2308 58.4375 49.2308C52.4145 49.2308 47.5 44.2269 47.5 38.0769C47.5 31.9269 52.4145 26.9231 58.4375 26.9231C64.4605 26.9231 69.375 31.9269 69.375 38.0769Z" fill="#9eca50"/>
  <path d="M58.5417 30L65.0834 38.1111L58.5417 46.2222" stroke="#1b401e" stroke-width="4" stroke-linecap="round" stroke-linejoin="round"/>
  <path d="M58.75 46.2222V69" stroke="#9eca50" stroke-width="6" stroke-linecap="round"/>
  <path d="M58.75 69L25 69" stroke="#9eca50" stroke-width="6" stroke-linecap="round"/>
  <path d="M25 69L25 42" stroke="#9eca50" stroke-width="6" stroke-linecap="round"/>
</svg>
